<svg version="1.1" xmlns="http://www.w3.org/2000/svg" xmlns:xlink="http://www.w3.org/1999/xlink" width="407.33333333333337" height="655"><style xmlns="http://www.w3.org/1999/xhtml"></style><defs/><g transform="translate(0,0)"><g><rect fill="rgb(0,0,0)" stroke="none" x="0" y="0" width="407.33333333333337" height="655" fill-opacity="0"/></g><g transform="translate(0,0) matrix(1,0,0,1,20,560)"><g><g transform="translate(0,0) scale(3.6,0.75)"><g><path fill="#f1c232" stroke="none" d="M 0 0 L 100 0 Q 100 0 100 0 L 100 100 Q 100 100 100 100 L 0 100 Q 0 100 0 100 L 0 0 Q 0 0 0 0 Z"/><g transform="scale(0.2777777777777778,1.3333333333333333)"><path fill="none" stroke="none" d="M 0 0 L 360 0 Q 360 0 360 0 L 360 75 Q 360 75 360 75 L 0 75 Q 0 75 0 75 L 0 0 Q 0 0 0 0 Z"/><path fill="none" stroke="#333333" d="M 0 0 M 0 0 L 360 0 Q 360 0 360 0 L 360 75 Q 360 75 360 75 L 0 75 Q 0 75 0 75 L 0 0 Q 0 0 0 0 Z" stroke-miterlimit="10" stroke-width="2"/></g></g></g></g></g><g transform="matrix(1,0,0,1,30,584)"><g><g/></g><g><g/></g><g><g/></g><g><g/></g><g><g/><text fill="rgb(0, 0, 0)" stroke="none" font-family="&quot;Arial&quot;" font-size="24px" font-style="normal" font-weight="normal" text-decoration="" line-height="27px" x="118.98333740234375" y="21.5">H</text><text fill="rgb(0, 0, 0)" stroke="none" font-family="&quot;Arial&quot;" font-size="24px" font-style="normal" font-weight="normal" text-decoration="" line-height="27px" x="135.98333740234375" y="21.5">a</text><text fill="rgb(0, 0, 0)" stroke="none" font-family="&quot;Arial&quot;" font-size="24px" font-style="normal" font-weight="normal" text-decoration="" line-height="27px" x="148.98333740234375" y="21.5">r</text><text fill="rgb(0, 0, 0)" stroke="none" font-family="&quot;Arial&quot;" font-size="24px" font-style="normal" font-weight="normal" text-decoration="" line-height="27px" x="156.98333740234375" y="21.5">d</text><text fill="rgb(0, 0, 0)" stroke="none" font-family="&quot;Arial&quot;" font-size="24px" font-style="normal" font-weight="normal" text-decoration="" line-height="27px" x="169.98333740234375" y="21.5">w</text><text fill="rgb(0, 0, 0)" stroke="none" font-family="&quot;Arial&quot;" font-size="24px" font-style="normal" font-weight="normal" text-decoration="" line-height="27px" x="186.98333740234375" y="21.5">a</text><text fill="rgb(0, 0, 0)" stroke="none" font-family="&quot;Arial&quot;" font-size="24px" font-style="normal" font-weight="normal" text-decoration="" line-height="27px" x="199.98333740234375" y="21.5">r</text><text fill="rgb(0, 0, 0)" stroke="none" font-family="&quot;Arial&quot;" font-size="24px" font-style="normal" font-weight="normal" text-decoration="" line-height="27px" x="207.98333740234375" y="21.5">e</text></g><g><g/></g></g><g transform="translate(0,0) matrix(1,0,0,1,20,470)"><g><g transform="translate(0,0) scale(3.6,0.75)"><g><path fill="#ffff00" stroke="none" d="M 0 0 L 100 0 Q 100 0 100 0 L 100 100 Q 100 100 100 100 L 0 100 Q 0 100 0 100 L 0 0 Q 0 0 0 0 Z"/><g transform="scale(0.2777777777777778,1.3333333333333333)"><path fill="none" stroke="none" d="M 0 0 L 360 0 Q 360 0 360 0 L 360 75 Q 360 75 360 75 L 0 75 Q 0 75 0 75 L 0 0 Q 0 0 0 0 Z"/><path fill="none" stroke="#333333" d="M 0 0 M 0 0 L 360 0 Q 360 0 360 0 L 360 75 Q 360 75 360 75 L 0 75 Q 0 75 0 75 L 0 0 Q 0 0 0 0 Z" stroke-miterlimit="10" stroke-width="2"/></g></g></g></g></g><g transform="matrix(1,0,0,1,30,494)"><g><g/></g><g><g/></g><g><g/></g><g><g/></g><g><g/><text fill="rgb(0, 0, 0)" stroke="none" font-family="&quot;Arial&quot;" font-size="24px" font-style="normal" font-weight="normal" text-decoration="" line-height="27px" x="146.98333740234375" y="21.5">H</text><text fill="rgb(0, 0, 0)" stroke="none" font-family="&quot;Arial&quot;" font-size="24px" font-style="normal" font-weight="normal" text-decoration="" line-height="27px" x="163.98333740234375" y="21.5">A</text><text fill="rgb(0, 0, 0)" stroke="none" font-family="&quot;Arial&quot;" font-size="24px" font-style="normal" font-weight="normal" text-decoration="" line-height="27px" x="179.98333740234375" y="21.5">L</text></g><g><g/></g></g><g transform="translate(0,0) matrix(1,0,0,1,20,380)"><g><g transform="translate(0,0) scale(1.2,0.75)"><g><path fill="#ffd966" stroke="none" d="M 0 0 L 100 0 Q 100 0 100 0 L 100 100 Q 100 100 100 100 L 0 100 Q 0 100 0 100 L 0 0 Q 0 0 0 0 Z"/><g transform="scale(0.8333333333333334,1.3333333333333333)"><path fill="none" stroke="none" d="M 0 0 L 120 0 Q 120 0 120 0 L 120 75 Q 120 75 120 75 L 0 75 Q 0 75 0 75 L 0 0 Q 0 0 0 0 Z"/><path fill="none" stroke="#333333" d="M 0 0 M 0 0 L 120 0 Q 120 0 120 0 L 120 75 Q 120 75 120 75 L 0 75 Q 0 75 0 75 L 0 0 Q 0 0 0 0 Z" stroke-miterlimit="10" stroke-width="2"/></g></g></g></g></g><g transform="matrix(1,0,0,1,29,391)"><g><g/></g><g><g/></g><g><g/><text fill="rgb(0, 0, 0)" stroke="none" font-family="&quot;Arial&quot;" font-size="24px" font-style="normal" font-weight="normal" text-decoration="" line-height="27px" x="19.833328247070312" y="21.5">D</text><text fill="rgb(0, 0, 0)" stroke="none" font-family="&quot;Arial&quot;" font-size="24px" font-style="normal" font-weight="normal" text-decoration="" line-height="27px" x="36.83332824707031" y="21.5">a</text><text fill="rgb(0, 0, 0)" stroke="none" font-family="&quot;Arial&quot;" font-size="24px" font-style="normal" font-weight="normal" text-decoration="" line-height="27px" x="49.83332824707031" y="21.5">t</text><text fill="rgb(0, 0, 0)" stroke="none" font-family="&quot;Arial&quot;" font-size="24px" font-style="normal" font-weight="normal" text-decoration="" line-height="27px" x="56.83332824707031" y="21.5">e</text><text fill="rgb(0, 0, 0)" stroke="none" font-family="&quot;Arial&quot;" font-size="24px" font-style="normal" font-weight="normal" text-decoration="" line-height="27px" x="69.83332824707031" y="21.5">i</text><text fill="rgb(0, 0, 0)" stroke="none" font-family="&quot;Arial&quot;" font-size="24px" font-style="normal" font-weight="normal" text-decoration="" line-height="27px" x="74.83332824707031" y="21.5">-</text><text fill="rgb(0, 0, 0)" stroke="none" font-family="&quot;Arial&quot;" font-size="24px" font-style="normal" font-weight="normal" text-decoration="" line-height="27px" x="13.333328247070312" y="48.5">s</text><text fill="rgb(0, 0, 0)" stroke="none" font-family="&quot;Arial&quot;" font-size="24px" font-style="normal" font-weight="normal" text-decoration="" line-height="27px" x="25.333328247070312" y="48.5">y</text><text fill="rgb(0, 0, 0)" stroke="none" font-family="&quot;Arial&quot;" font-size="24px" font-style="normal" font-weight="normal" text-decoration="" line-height="27px" x="37.33332824707031" y="48.5">s</text><text fill="rgb(0, 0, 0)" stroke="none" font-family="&quot;Arial&quot;" font-size="24px" font-style="normal" font-weight="normal" text-decoration="" line-height="27px" x="49.33332824707031" y="48.5">t</text><text fill="rgb(0, 0, 0)" stroke="none" font-family="&quot;Arial&quot;" font-size="24px" font-style="normal" font-weight="normal" text-decoration="" line-height="27px" x="56.33332824707031" y="48.5">e</text><text fill="rgb(0, 0, 0)" stroke="none" font-family="&quot;Arial&quot;" font-size="24px" font-style="normal" font-weight="normal" text-decoration="" line-height="27px" x="69.33332824707031" y="48.5">m</text></g></g><g transform="translate(0,0) matrix(1,0,0,1,20,200)"><g><g transform="translate(0,0) scale(3.6,0.75)"><g><path fill="#8e7cc3" stroke="none" d="M 0 0 L 100 0 Q 100 0 100 0 L 100 100 Q 100 100 100 100 L 0 100 Q 0 100 0 100 L 0 0 Q 0 0 0 0 Z"/><g transform="scale(0.2777777777777778,1.3333333333333333)"><path fill="none" stroke="none" d="M 0 0 L 360 0 Q 360 0 360 0 L 360 75 Q 360 75 360 75 L 0 75 Q 0 75 0 75 L 0 0 Q 0 0 0 0 Z"/><path fill="none" stroke="#333333" d="M 0 0 M 0 0 L 360 0 Q 360 0 360 0 L 360 75 Q 360 75 360 75 L 0 75 Q 0 75 0 75 L 0 0 Q 0 0 0 0 Z" stroke-miterlimit="10" stroke-width="2"/></g></g></g></g></g><g transform="matrix(1,0,0,1,30,224)"><g><g/></g><g><g/></g><g><g/><text fill="rgb(0, 0, 0)" stroke="none" font-family="&quot;Arial&quot;" font-size="24px" font-style="normal" font-weight="normal" text-decoration="" line-height="27px" x="74.5" y="21.5">S</text><text fill="rgb(0, 0, 0)" stroke="none" font-family="&quot;Arial&quot;" font-size="24px" font-style="normal" font-weight="normal" text-decoration="" line-height="27px" x="90.5" y="21.5">y</text><text fill="rgb(0, 0, 0)" stroke="none" font-family="&quot;Arial&quot;" font-size="24px" font-style="normal" font-weight="normal" text-decoration="" line-height="27px" x="102.5" y="21.5">s</text><text fill="rgb(0, 0, 0)" stroke="none" font-family="&quot;Arial&quot;" font-size="24px" font-style="normal" font-weight="normal" text-decoration="" line-height="27px" x="114.5" y="21.5">t</text><text fill="rgb(0, 0, 0)" stroke="none" font-family="&quot;Arial&quot;" font-size="24px" font-style="normal" font-weight="normal" text-decoration="" line-height="27px" x="121.5" y="21.5">e</text><text fill="rgb(0, 0, 0)" stroke="none" font-family="&quot;Arial&quot;" font-size="24px" font-style="normal" font-weight="normal" text-decoration="" line-height="27px" x="134.5" y="21.5">m</text><text fill="rgb(0, 0, 0)" stroke="none" font-family="&quot;Arial&quot;" font-size="24px" font-style="normal" font-weight="normal" text-decoration="" line-height="27px" x="154.5" y="21.5">s</text><text fill="rgb(0, 0, 0)" stroke="none" font-family="&quot;Arial&quot;" font-size="24px" font-style="normal" font-weight="normal" text-decoration="" line-height="27px" x="166.5" y="21.5">c</text><text fill="rgb(0, 0, 0)" stroke="none" font-family="&quot;Arial&quot;" font-size="24px" font-style="normal" font-weight="normal" text-decoration="" line-height="27px" x="178.5" y="21.5">h</text><text fill="rgb(0, 0, 0)" stroke="none" font-family="&quot;Arial&quot;" font-size="24px" font-style="normal" font-weight="normal" text-decoration="" line-height="27px" x="191.5" y="21.5">i</text><text fill="rgb(0, 0, 0)" stroke="none" font-family="&quot;Arial&quot;" font-size="24px" font-style="normal" font-weight="normal" text-decoration="" line-height="27px" x="196.5" y="21.5">t</text><text fill="rgb(0, 0, 0)" stroke="none" font-family="&quot;Arial&quot;" font-size="24px" font-style="normal" font-weight="normal" text-decoration="" line-height="27px" x="203.5" y="21.5">t</text><text fill="rgb(0, 0, 0)" stroke="none" font-family="&quot;Arial&quot;" font-size="24px" font-style="normal" font-weight="normal" text-decoration="" line-height="27px" x="210.5" y="21.5">s</text><text fill="rgb(0, 0, 0)" stroke="none" font-family="&quot;Arial&quot;" font-size="24px" font-style="normal" font-weight="normal" text-decoration="" line-height="27px" x="222.5" y="21.5">t</text><text fill="rgb(0, 0, 0)" stroke="none" font-family="&quot;Arial&quot;" font-size="24px" font-style="normal" font-weight="normal" text-decoration="" line-height="27px" x="229.5" y="21.5">e</text><text fill="rgb(0, 0, 0)" stroke="none" font-family="&quot;Arial&quot;" font-size="24px" font-style="normal" font-weight="normal" text-decoration="" line-height="27px" x="242.5" y="21.5">l</text><text fill="rgb(0, 0, 0)" stroke="none" font-family="&quot;Arial&quot;" font-size="24px" font-style="normal" font-weight="normal" text-decoration="" line-height="27px" x="247.5" y="21.5">l</text><text fill="rgb(0, 0, 0)" stroke="none" font-family="&quot;Arial&quot;" font-size="24px" font-style="normal" font-weight="normal" text-decoration="" line-height="27px" x="252.5" y="21.5">e</text></g></g><g transform="translate(0,0) matrix(1,0,0,1,20,110)"><g><g transform="translate(0,0) scale(3.6,0.75)"><g><path fill="#1155cc" stroke="none" d="M 0 0 L 100 0 Q 100 0 100 0 L 100 100 Q 100 100 100 100 L 0 100 Q 0 100 0 100 L 0 0 Q 0 0 0 0 Z"/><g transform="scale(0.2777777777777778,1.3333333333333333)"><path fill="none" stroke="none" d="M 0 0 L 360 0 Q 360 0 360 0 L 360 75 Q 360 75 360 75 L 0 75 Q 0 75 0 75 L 0 0 Q 0 0 0 0 Z"/><path fill="none" stroke="#333333" d="M 0 0 M 0 0 L 360 0 Q 360 0 360 0 L 360 75 Q 360 75 360 75 L 0 75 Q 0 75 0 75 L 0 0 Q 0 0 0 0 Z" stroke-miterlimit="10" stroke-width="2"/></g></g></g></g></g><g transform="matrix(1,0,0,1,30,134)"><g><g/></g><g><g/></g><g><g/></g><g><g/></g><g><g/><text fill="rgb(0, 0, 0)" stroke="none" font-family="&quot;Arial&quot;" font-size="24px" font-style="normal" font-weight="normal" text-decoration="" line-height="27px" x="150.48333740234375" y="21.5">A</text><text fill="rgb(0, 0, 0)" stroke="none" font-family="&quot;Arial&quot;" font-size="24px" font-style="normal" font-weight="normal" text-decoration="" line-height="27px" x="166.48333740234375" y="21.5">P</text><text fill="rgb(0, 0, 0)" stroke="none" font-family="&quot;Arial&quot;" font-size="24px" font-style="normal" font-weight="normal" text-decoration="" line-height="27px" x="182.48333740234375" y="21.5">I</text></g><g><g/></g></g><g transform="translate(0,0) matrix(1,0,0,1,20,20)"><g><g transform="translate(0,0) scale(1.8,0.75)"><g><path fill="#d9ead3" stroke="none" d="M 0 0 L 100 0 Q 100 0 100 0 L 100 100 Q 100 100 100 100 L 0 100 Q 0 100 0 100 L 0 0 Q 0 0 0 0 Z"/><g transform="scale(0.5555555555555556,1.3333333333333333)"><path fill="none" stroke="none" d="M 0 0 L 180 0 Q 180 0 180 0 L 180 75 Q 180 75 180 75 L 0 75 Q 0 75 0 75 L 0 0 Q 0 0 0 0 Z"/><path fill="none" stroke="#333333" d="M 0 0 M 0 0 L 180 0 Q 180 0 180 0 L 180 75 Q 180 75 180 75 L 0 75 Q 0 75 0 75 L 0 0 Q 0 0 0 0 Z" stroke-miterlimit="10" stroke-width="2"/></g></g></g></g></g><g transform="matrix(1,0,0,1,29,44)"><g><g/></g><g><g/></g><g><g/></g><g><g/></g><g><g/><text fill="rgb(0, 0, 0)" stroke="none" font-family="&quot;Arial&quot;" font-size="24px" font-style="normal" font-weight="normal" text-decoration="" line-height="27px" x="18.98333740234375" y="21.5">P</text><text fill="rgb(0, 0, 0)" stroke="none" font-family="&quot;Arial&quot;" font-size="24px" font-style="normal" font-weight="normal" text-decoration="" line-height="27px" x="34.98333740234375" y="21.5">r</text><text fill="rgb(0, 0, 0)" stroke="none" font-family="&quot;Arial&quot;" font-size="24px" font-style="normal" font-weight="normal" text-decoration="" line-height="27px" x="42.98333740234375" y="21.5">o</text><text fill="rgb(0, 0, 0)" stroke="none" font-family="&quot;Arial&quot;" font-size="24px" font-style="normal" font-weight="normal" text-decoration="" line-height="27px" x="55.98333740234375" y="21.5">g</text><text fill="rgb(0, 0, 0)" stroke="none" font-family="&quot;Arial&quot;" font-size="24px" font-style="normal" font-weight="normal" text-decoration="" line-height="27px" x="68.98333740234375" y="21.5">r</text><text fill="rgb(0, 0, 0)" stroke="none" font-family="&quot;Arial&quot;" font-size="24px" font-style="normal" font-weight="normal" text-decoration="" line-height="27px" x="76.98333740234375" y="21.5">a</text><text fill="rgb(0, 0, 0)" stroke="none" font-family="&quot;Arial&quot;" font-size="24px" font-style="normal" font-weight="normal" text-decoration="" line-height="27px" x="89.98333740234375" y="21.5">m</text><text fill="rgb(0, 0, 0)" stroke="none" font-family="&quot;Arial&quot;" font-size="24px" font-style="normal" font-weight="normal" text-decoration="" line-height="27px" x="109.98333740234375" y="21.5">m</text><text fill="rgb(0, 0, 0)" stroke="none" font-family="&quot;Arial&quot;" font-size="24px" font-style="normal" font-weight="normal" text-decoration="" line-height="27px" x="129.98333740234375" y="21.5">e</text></g><g><g/></g></g><g transform="translate(0,0) matrix(1,0,0,1,200,20)"><g><g transform="translate(0,0) scale(1.8,0.75)"><g><path fill="#d0e0e3" stroke="none" d="M 0 0 L 100 0 Q 100 0 100 0 L 100 100 Q 100 100 100 100 L 0 100 Q 0 100 0 100 L 0 0 Q 0 0 0 0 Z"/><g transform="scale(0.5555555555555556,1.3333333333333333)"><path fill="none" stroke="none" d="M 0 0 L 180 0 Q 180 0 180 0 L 180 75 Q 180 75 180 75 L 0 75 Q 0 75 0 75 L 0 0 Q 0 0 0 0 Z"/><path fill="none" stroke="#000000" d="M 0 0 M 0 0 L 180 0 Q 180 0 180 0 L 180 75 Q 180 75 180 75 L 0 75 Q 0 75 0 75 L 0 0 Q 0 0 0 0 Z" stroke-miterlimit="10" stroke-width="2"/></g></g></g></g></g><g transform="matrix(1,0,0,1,209,44)"><g><g/></g><g><g/></g><g><g/></g><g><g/></g><g><g/><text fill="rgb(0, 0, 0)" stroke="none" font-family="&quot;Arial&quot;" font-size="24px" font-style="normal" font-weight="normal" text-decoration="" line-height="27px" x="16.98333740234375" y="21.5">B</text><text fill="rgb(0, 0, 0)" stroke="none" font-family="&quot;Arial&quot;" font-size="24px" font-style="normal" font-weight="normal" text-decoration="" line-height="27px" x="32.98333740234375" y="21.5">i</text><text fill="rgb(0, 0, 0)" stroke="none" font-family="&quot;Arial&quot;" font-size="24px" font-style="normal" font-weight="normal" text-decoration="" line-height="27px" x="37.98333740234375" y="21.5">b</text><text fill="rgb(0, 0, 0)" stroke="none" font-family="&quot;Arial&quot;" font-size="24px" font-style="normal" font-weight="normal" text-decoration="" line-height="27px" x="50.98333740234375" y="21.5">l</text><text fill="rgb(0, 0, 0)" stroke="none" font-family="&quot;Arial&quot;" font-size="24px" font-style="normal" font-weight="normal" text-decoration="" line-height="27px" x="55.98333740234375" y="21.5">i</text><text fill="rgb(0, 0, 0)" stroke="none" font-family="&quot;Arial&quot;" font-size="24px" font-style="normal" font-weight="normal" text-decoration="" line-height="27px" x="60.98333740234375" y="21.5">o</text><text fill="rgb(0, 0, 0)" stroke="none" font-family="&quot;Arial&quot;" font-size="24px" font-style="normal" font-weight="normal" text-decoration="" line-height="27px" x="73.98333740234375" y="21.5">t</text><text fill="rgb(0, 0, 0)" stroke="none" font-family="&quot;Arial&quot;" font-size="24px" font-style="normal" font-weight="normal" text-decoration="" line-height="27px" x="80.98333740234375" y="21.5">h</text><text fill="rgb(0, 0, 0)" stroke="none" font-family="&quot;Arial&quot;" font-size="24px" font-style="normal" font-weight="normal" text-decoration="" line-height="27px" x="93.98333740234375" y="21.5">e</text><text fill="rgb(0, 0, 0)" stroke="none" font-family="&quot;Arial&quot;" font-size="24px" font-style="normal" font-weight="normal" text-decoration="" line-height="27px" x="106.98333740234375" y="21.5">k</text><text fill="rgb(0, 0, 0)" stroke="none" font-family="&quot;Arial&quot;" font-size="24px" font-style="normal" font-weight="normal" text-decoration="" line-height="27px" x="118.98333740234375" y="21.5">e</text><text fill="rgb(0, 0, 0)" stroke="none" font-family="&quot;Arial&quot;" font-size="24px" font-style="normal" font-weight="normal" text-decoration="" line-height="27px" x="131.98333740234375" y="21.5">n</text></g><g><g/></g></g><g transform="translate(0,0) matrix(1,0,0,1,140,380)"><g><g transform="translate(0,0) scale(1.2,0.75)"><g><path fill="#ffd966" stroke="none" d="M 0 0 L 100 0 Q 100 0 100 0 L 100 100 Q 100 100 100 100 L 0 100 Q 0 100 0 100 L 0 0 Q 0 0 0 0 Z"/><g transform="scale(0.8333333333333334,1.3333333333333333)"><path fill="none" stroke="none" d="M 0 0 L 120 0 Q 120 0 120 0 L 120 75 Q 120 75 120 75 L 0 75 Q 0 75 0 75 L 0 0 Q 0 0 0 0 Z"/><path fill="none" stroke="#333333" d="M 0 0 M 0 0 L 120 0 Q 120 0 120 0 L 120 75 Q 120 75 120 75 L 0 75 Q 0 75 0 75 L 0 0 Q 0 0 0 0 Z" stroke-miterlimit="10" stroke-width="2"/></g></g></g></g></g><g transform="matrix(1,0,0,1,149,404)"><g><g/></g><g><g/></g><g><g/><text fill="rgb(0, 0, 0)" stroke="none" font-family="&quot;Arial&quot;" font-size="24px" font-style="normal" font-weight="normal" text-decoration="" line-height="27px" x="14.333328247070312" y="21.5">T</text><text fill="rgb(0, 0, 0)" stroke="none" font-family="&quot;Arial&quot;" font-size="24px" font-style="normal" font-weight="normal" text-decoration="" line-height="27px" x="28.333328247070312" y="21.5">r</text><text fill="rgb(0, 0, 0)" stroke="none" font-family="&quot;Arial&quot;" font-size="24px" font-style="normal" font-weight="normal" text-decoration="" line-height="27px" x="36.33332824707031" y="21.5">e</text><text fill="rgb(0, 0, 0)" stroke="none" font-family="&quot;Arial&quot;" font-size="24px" font-style="normal" font-weight="normal" text-decoration="" line-height="27px" x="49.33332824707031" y="21.5">i</text><text fill="rgb(0, 0, 0)" stroke="none" font-family="&quot;Arial&quot;" font-size="24px" font-style="normal" font-weight="normal" text-decoration="" line-height="27px" x="54.33332824707031" y="21.5">b</text><text fill="rgb(0, 0, 0)" stroke="none" font-family="&quot;Arial&quot;" font-size="24px" font-style="normal" font-weight="normal" text-decoration="" line-height="27px" x="67.33332824707031" y="21.5">e</text><text fill="rgb(0, 0, 0)" stroke="none" font-family="&quot;Arial&quot;" font-size="24px" font-style="normal" font-weight="normal" text-decoration="" line-height="27px" x="80.33332824707031" y="21.5">r</text></g></g><g transform="translate(0,0) matrix(1,0,0,1,260,380)"><g><g transform="translate(0,0) scale(1.2,0.75)"><g><path fill="#ffd966" stroke="none" d="M 0 0 L 100 0 Q 100 0 100 0 L 100 100 Q 100 100 100 100 L 0 100 Q 0 100 0 100 L 0 0 Q 0 0 0 0 Z"/><g transform="scale(0.8333333333333334,1.3333333333333333)"><path fill="none" stroke="none" d="M 0 0 L 120 0 Q 120 0 120 0 L 120 75 Q 120 75 120 75 L 0 75 Q 0 75 0 75 L 0 0 Q 0 0 0 0 Z"/><path fill="none" stroke="#333333" d="M 0 0 M 0 0 L 120 0 Q 120 0 120 0 L 120 75 Q 120 75 120 75 L 0 75 Q 0 75 0 75 L 0 0 Q 0 0 0 0 Z" stroke-miterlimit="10" stroke-width="2"/></g></g></g></g></g><g transform="matrix(1,0,0,1,269,404)"><g><g/></g><g><g/></g><g><g/><text fill="rgb(0, 0, 0)" stroke="none" font-family="&quot;Arial&quot;" font-size="24px" font-style="normal" font-weight="normal" text-decoration="" line-height="27px" x="40.83332824707031" y="21.5">.</text><text fill="rgb(0, 0, 0)" stroke="none" font-family="&quot;Arial&quot;" font-size="24px" font-style="normal" font-weight="normal" text-decoration="" line-height="27px" x="47.83332824707031" y="21.5">.</text><text fill="rgb(0, 0, 0)" stroke="none" font-family="&quot;Arial&quot;" font-size="24px" font-style="normal" font-weight="normal" text-decoration="" line-height="27px" x="54.83332824707031" y="21.5">.</text></g></g><g transform="translate(0,0) matrix(1,0,0,1,20,290)"><g><g transform="translate(0,0) scale(3.6,0.75)"><g><path fill="#93c47d" stroke="none" d="M 0 0 L 100 0 Q 100 0 100 0 L 100 100 Q 100 100 100 100 L 0 100 Q 0 100 0 100 L 0 0 Q 0 0 0 0 Z"/><g transform="scale(0.2777777777777778,1.3333333333333333)"><path fill="none" stroke="none" d="M 0 0 L 360 0 Q 360 0 360 0 L 360 75 Q 360 75 360 75 L 0 75 Q 0 75 0 75 L 0 0 Q 0 0 0 0 Z"/><path fill="none" stroke="#333333" d="M 0 0 M 0 0 L 360 0 Q 360 0 360 0 L 360 75 Q 360 75 360 75 L 0 75 Q 0 75 0 75 L 0 0 Q 0 0 0 0 Z" stroke-miterlimit="10" stroke-width="2"/></g></g></g></g></g><g transform="matrix(1,0,0,1,30,301)"><g><g/></g><g><g/></g><g><g/><text fill="rgb(0, 0, 0)" stroke="none" font-family="&quot;Arial&quot;" font-size="24px" font-style="normal" font-weight="normal" text-decoration="" line-height="27px" x="53.5" y="21.5">P</text><text fill="rgb(0, 0, 0)" stroke="none" font-family="&quot;Arial&quot;" font-size="24px" font-style="normal" font-weight="normal" text-decoration="" line-height="27px" x="69.5" y="21.5">r</text><text fill="rgb(0, 0, 0)" stroke="none" font-family="&quot;Arial&quot;" font-size="24px" font-style="normal" font-weight="normal" text-decoration="" line-height="27px" x="77.5" y="21.5">o</text><text fill="rgb(0, 0, 0)" stroke="none" font-family="&quot;Arial&quot;" font-size="24px" font-style="normal" font-weight="normal" text-decoration="" line-height="27px" x="90.5" y="21.5">z</text><text fill="rgb(0, 0, 0)" stroke="none" font-family="&quot;Arial&quot;" font-size="24px" font-style="normal" font-weight="normal" text-decoration="" line-height="27px" x="102.5" y="21.5">e</text><text fill="rgb(0, 0, 0)" stroke="none" font-family="&quot;Arial&quot;" font-size="24px" font-style="normal" font-weight="normal" text-decoration="" line-height="27px" x="115.5" y="21.5">s</text><text fill="rgb(0, 0, 0)" stroke="none" font-family="&quot;Arial&quot;" font-size="24px" font-style="normal" font-weight="normal" text-decoration="" line-height="27px" x="127.5" y="21.5">s</text><text fill="rgb(0, 0, 0)" stroke="none" font-family="&quot;Arial&quot;" font-size="24px" font-style="normal" font-weight="normal" text-decoration="" line-height="27px" x="146.5" y="21.5">/</text><text fill="rgb(0, 0, 0)" stroke="none" font-family="&quot;Arial&quot;" font-size="24px" font-style="normal" font-weight="normal" text-decoration="" line-height="27px" x="160.5" y="21.5">R</text><text fill="rgb(0, 0, 0)" stroke="none" font-family="&quot;Arial&quot;" font-size="24px" font-style="normal" font-weight="normal" text-decoration="" line-height="27px" x="177.5" y="21.5">e</text><text fill="rgb(0, 0, 0)" stroke="none" font-family="&quot;Arial&quot;" font-size="24px" font-style="normal" font-weight="normal" text-decoration="" line-height="27px" x="190.5" y="21.5">s</text><text fill="rgb(0, 0, 0)" stroke="none" font-family="&quot;Arial&quot;" font-size="24px" font-style="normal" font-weight="normal" text-decoration="" line-height="27px" x="202.5" y="21.5">s</text><text fill="rgb(0, 0, 0)" stroke="none" font-family="&quot;Arial&quot;" font-size="24px" font-style="normal" font-weight="normal" text-decoration="" line-height="27px" x="214.5" y="21.5">o</text><text fill="rgb(0, 0, 0)" stroke="none" font-family="&quot;Arial&quot;" font-size="24px" font-style="normal" font-weight="normal" text-decoration="" line-height="27px" x="227.5" y="21.5">u</text><text fill="rgb(0, 0, 0)" stroke="none" font-family="&quot;Arial&quot;" font-size="24px" font-style="normal" font-weight="normal" text-decoration="" line-height="27px" x="240.5" y="21.5">r</text><text fill="rgb(0, 0, 0)" stroke="none" font-family="&quot;Arial&quot;" font-size="24px" font-style="normal" font-weight="normal" text-decoration="" line-height="27px" x="248.5" y="21.5">c</text><text fill="rgb(0, 0, 0)" stroke="none" font-family="&quot;Arial&quot;" font-size="24px" font-style="normal" font-weight="normal" text-decoration="" line-height="27px" x="260.5" y="21.5">e</text><text fill="rgb(0, 0, 0)" stroke="none" font-family="&quot;Arial&quot;" font-size="24px" font-style="normal" font-weight="normal" text-decoration="" line-height="27px" x="273.5" y="21.5">n</text><text fill="rgb(0, 0, 0)" stroke="none" font-family="&quot;Arial&quot;" font-size="24px" font-style="normal" font-weight="normal" text-decoration="" line-height="27px" x="101" y="48.5">M</text><text fill="rgb(0, 0, 0)" stroke="none" font-family="&quot;Arial&quot;" font-size="24px" font-style="normal" font-weight="normal" text-decoration="" line-height="27px" x="121" y="48.5">a</text><text fill="rgb(0, 0, 0)" stroke="none" font-family="&quot;Arial&quot;" font-size="24px" font-style="normal" font-weight="normal" text-decoration="" line-height="27px" x="134" y="48.5">n</text><text fill="rgb(0, 0, 0)" stroke="none" font-family="&quot;Arial&quot;" font-size="24px" font-style="normal" font-weight="normal" text-decoration="" line-height="27px" x="147" y="48.5">a</text><text fill="rgb(0, 0, 0)" stroke="none" font-family="&quot;Arial&quot;" font-size="24px" font-style="normal" font-weight="normal" text-decoration="" line-height="27px" x="160" y="48.5">g</text><text fill="rgb(0, 0, 0)" stroke="none" font-family="&quot;Arial&quot;" font-size="24px" font-style="normal" font-weight="normal" text-decoration="" line-height="27px" x="173" y="48.5">e</text><text fill="rgb(0, 0, 0)" stroke="none" font-family="&quot;Arial&quot;" font-size="24px" font-style="normal" font-weight="normal" text-decoration="" line-height="27px" x="186" y="48.5">m</text><text fill="rgb(0, 0, 0)" stroke="none" font-family="&quot;Arial&quot;" font-size="24px" font-style="normal" font-weight="normal" text-decoration="" line-height="27px" x="206" y="48.5">e</text><text fill="rgb(0, 0, 0)" stroke="none" font-family="&quot;Arial&quot;" font-size="24px" font-style="normal" font-weight="normal" text-decoration="" line-height="27px" x="219" y="48.5">n</text><text fill="rgb(0, 0, 0)" stroke="none" font-family="&quot;Arial&quot;" font-size="24px" font-style="normal" font-weight="normal" text-decoration="" line-height="27px" x="232" y="48.5">t</text></g></g></g></svg>